<svg width="144" height="37" viewBox="0 0 144 37" fill="none" xmlns="http://www.w3.org/2000/svg">
<path fill-rule="evenodd" clip-rule="evenodd" d="M22.2199 22.37C22.2499 21.76 22.7699 21.28 23.3799 21.31C23.8799 21.33 24.2899 21.6801 24.4099 22.1401C24.9299 23.9101 26.0599 24.8701 27.6999 25.5701C28.1099 25.7501 28.3999 26.1701 28.3699 26.6401C28.3399 27.2501 27.8199 27.7301 27.2099 27.7001C25.3399 27.6101 22.1499 24.16 22.2299 22.37M76.7899 22.37C76.8199 21.76 77.3399 21.28 77.9499 21.31C78.4499 21.33 78.8599 21.6801 78.9799 22.1401C79.4999 23.9101 80.6299 24.8701 82.2699 25.5701C82.6799 25.7501 82.9699 26.1701 82.9399 26.6401C82.9099 27.2501 82.3899 27.7301 81.7799 27.7001C79.9099 27.6101 76.7199 24.16 76.7999 22.37" fill="#8CBC24"/>
<path fill-rule="evenodd" clip-rule="evenodd" d="M13.1799 26.1501C13.1799 27.0001 13.8799 27.7001 14.7299 27.7001H18.0399C18.8899 27.7001 19.5899 27.0001 19.5899 26.1501C19.5899 25.3001 18.8899 24.6 18.0399 24.6H14.7299C13.8799 24.6 13.1799 25.3001 13.1799 26.1501Z" fill="#AF191E"/>
<path fill-rule="evenodd" clip-rule="evenodd" d="M100.59 27.7001C101.44 27.7001 102.14 27.0001 102.14 26.1501V22.8401C102.14 21.9901 101.44 21.29 100.59 21.29C99.7399 21.29 99.0399 21.9901 99.0399 22.8401V26.1501C99.0399 27.0001 99.7399 27.7001 100.59 27.7001Z" fill="#AF191E"/>
<path fill-rule="evenodd" clip-rule="evenodd" d="M119.28 11.85H121.06C122.04 11.85 122.84 11.0501 122.84 10.0701C122.84 9.09007 122.04 8.29004 121.06 8.29004C120.08 8.29004 119.28 9.09007 119.28 10.0701V11.85Z" fill="#298CCC"/>
<path fill-rule="evenodd" clip-rule="evenodd" d="M55.2599 11.85H57.0399C58.0199 11.85 58.8199 11.0501 58.8199 10.0701C58.8199 9.09007 58.0199 8.29004 57.0399 8.29004C56.0599 8.29004 55.2599 9.09007 55.2599 10.0701V11.85Z" fill="#298CCC"/>
<path fill-rule="evenodd" clip-rule="evenodd" d="M28.5599 11.85H30.3399C31.3199 11.85 32.1199 11.0501 32.1199 10.0701C32.1199 9.09007 31.3199 8.29004 30.3399 8.29004C29.3599 8.29004 28.5599 9.09007 28.5599 10.0701V11.85ZM83.8699 12.9901C87.9299 12.9901 91.2299 16.28 91.2299 20.35C91.2299 24.42 87.9399 27.7001 83.8699 27.7001H83.7999V25.48H83.8699C86.6999 25.48 88.9999 23.18 88.9999 20.35C88.9999 17.52 86.6999 15.22 83.8699 15.22C81.0399 15.22 78.8099 17.45 78.7399 20.23H76.5199C76.5899 16.23 79.8499 13.0001 83.8699 13.0001M72.3099 27.6801H67.1999C63.1499 27.6801 59.8399 24.39 59.8399 20.36C59.8399 16.33 63.1499 13.04 67.1999 13.04C71.2499 13.04 74.5599 16.33 74.5599 20.36V29.1801C74.5599 36.9701 62.5599 38.1901 59.8499 31.3901H62.7399C65.3599 35.4501 72.3099 33.26 72.3099 29.17V27.67V27.6801ZM72.3099 25.4401V20.35C72.3099 17.55 70.0099 15.2601 67.1999 15.2601C64.3899 15.2601 62.0899 17.55 62.0899 20.35C62.0899 23.15 64.3899 25.4401 67.1999 25.4401H72.3099ZM55.2599 13.1801H57.4799V27.67H55.2599V13.1801ZM50.6399 13.1801V5.12006H52.8499V20.4401C52.8499 24.4401 49.5899 27.7001 45.5899 27.7001C41.5899 27.7001 38.3299 24.4401 38.3299 20.4401C38.3299 16.4401 41.5899 13.1801 45.5899 13.1801H50.6499H50.6399ZM50.6399 15.3901H45.5799C42.7999 15.3901 40.5199 17.6701 40.5199 20.4501C40.5199 23.2301 42.7899 25.5101 45.5799 25.5101C48.3699 25.5101 50.6399 23.2301 50.6399 20.4501V15.3901ZM29.2999 12.9901C33.3599 12.9901 36.6599 16.28 36.6599 20.35C36.6599 24.42 33.3699 27.7001 29.2999 27.7001H29.2299V25.48H29.2999C32.1299 25.48 34.4299 23.18 34.4299 20.35C34.4299 17.52 32.1299 15.22 29.2999 15.22C26.4699 15.22 24.2399 17.45 24.1699 20.23H21.9499C22.0199 16.23 25.2799 13.0001 29.2999 13.0001M12.0199 5.02008C15.3499 5.02008 18.3399 6.44007 20.4299 8.70007L17.9099 11.0001C16.4499 9.41006 14.3599 8.42004 12.0199 8.42004C7.61987 8.42004 4.04987 11.97 4.04987 16.35C4.04987 20.73 7.61987 24.2801 12.0199 24.2801H12.0999V27.6801H12.0199C5.72987 27.6801 0.629883 22.6001 0.629883 16.3401C0.629883 10.0801 5.72987 5.00006 12.0199 5.00006M102.55 16.3101L116.24 24.73L114.47 27.67L98.8799 18.0701V0.300049H102.26V12.5301L102.28 12.4901L114.93 5.11005L116.63 8.09009L102.55 16.3V16.3101ZM119.28 13.1801H121.5V27.67H119.28V13.1801ZM137.07 13.1801V5.12006H139.28V20.4401C139.28 24.4401 136.02 27.7001 132.02 27.7001C128.02 27.7001 124.76 24.4401 124.76 20.4401C124.76 16.4401 128.02 13.1801 132.02 13.1801H137.08H137.07ZM137.07 15.3901H132.01C129.23 15.3901 126.95 17.6701 126.95 20.4501C126.95 23.2301 129.23 25.5101 132.01 25.5101C134.79 25.5101 137.07 23.2301 137.07 20.4501V15.3901Z" fill="url(#paint0_linear_1_175)"/>
<path d="M141.15 2.24005H141.57C141.69 2.24005 141.79 2.21009 141.88 2.15009C141.97 2.09009 142.01 2.01003 142.01 1.91003C142.01 1.77003 141.98 1.68006 141.9 1.62006C141.83 1.57006 141.7 1.54004 141.51 1.54004H141.14V2.24005H141.15ZM141.15 2.60004V3.54004H140.73V1.17004H141.51C141.79 1.17004 142.02 1.23004 142.18 1.35004C142.34 1.47004 142.42 1.65007 142.42 1.88007C142.42 1.99007 142.39 2.10005 142.33 2.18005C142.27 2.27005 142.18 2.34009 142.06 2.40009C142.18 2.45009 142.27 2.52006 142.33 2.62006C142.39 2.72006 142.41 2.84004 142.41 2.98004V3.14008C142.41 3.22008 142.41 3.28009 142.42 3.34009C142.42 3.40009 142.44 3.45005 142.46 3.49005V3.53009H142.03C142.03 3.53009 142 3.43005 142 3.36005C142 3.28005 142 3.21007 142 3.13007V2.98004C142 2.85004 141.97 2.75006 141.91 2.69006C141.85 2.62006 141.74 2.59009 141.6 2.59009H141.16L141.15 2.60004ZM139.91 2.39008C139.91 2.89008 140.07 3.30008 140.39 3.64008C140.71 3.98008 141.1 4.15009 141.56 4.15009C142.02 4.15009 142.4 3.98008 142.72 3.64008C143.04 3.30008 143.2 2.89008 143.2 2.39008C143.2 1.89008 143.04 1.49009 142.72 1.15009C142.4 0.810085 142.01 0.650085 141.56 0.650085C141.11 0.650085 140.71 0.820085 140.39 1.15009C140.07 1.49009 139.91 1.90008 139.91 2.39008ZM139.57 2.39008C139.57 1.80008 139.76 1.31003 140.15 0.910034C140.54 0.510034 141 0.310059 141.56 0.310059C142.12 0.310059 142.58 0.510034 142.96 0.910034C143.35 1.31003 143.54 1.81008 143.54 2.39008C143.54 2.97008 143.35 3.47007 142.96 3.88007C142.57 4.28007 142.11 4.48005 141.56 4.49005C141.01 4.49005 140.54 4.29007 140.15 3.88007C139.76 3.48007 139.57 2.98008 139.57 2.39008Z" fill="white"/>
<path d="M79.9499 33.0301H77.9299V34.7801H80.2899V35.3H77.2699V30.4001H80.2499V30.92H77.9299V32.5101H79.9499V33.0301Z" fill="#B7B7B7"/>
<path d="M83.0999 34.3201C83.0999 34.1701 83.0399 34.0501 82.9299 33.9601C82.8199 33.8701 82.6099 33.79 82.2999 33.72C81.8699 33.63 81.5399 33.5001 81.3099 33.3301C81.0799 33.1601 80.9599 32.94 80.9599 32.66C80.9599 32.36 81.0899 32.1101 81.3399 31.9001C81.5899 31.6901 81.9199 31.5801 82.3199 31.5801C82.7199 31.5801 83.0699 31.69 83.3199 31.92C83.5699 32.14 83.6999 32.4101 83.6899 32.7101V32.73H83.0499C83.0499 32.57 82.9799 32.43 82.8399 32.3C82.6999 32.17 82.5299 32.11 82.3199 32.11C82.0899 32.11 81.9099 32.1601 81.7999 32.2701C81.6899 32.3801 81.6299 32.5001 81.6299 32.6501C81.6299 32.8001 81.6799 32.9 81.7799 32.98C81.8799 33.06 82.0899 33.1301 82.3999 33.1901C82.8499 33.2901 83.1899 33.4201 83.4199 33.5901C83.6499 33.7601 83.7699 33.9901 83.7699 34.2701C83.7699 34.5901 83.6399 34.8601 83.3799 35.0601C83.1199 35.2601 82.7799 35.3701 82.3499 35.3701C81.8899 35.3701 81.5199 35.2501 81.2499 35.0201C80.9799 34.7801 80.8499 34.5101 80.8699 34.1901V34.17H81.5099C81.5199 34.41 81.6099 34.5801 81.7699 34.6901C81.9299 34.8001 82.1199 34.85 82.3499 34.85C82.5899 34.85 82.7699 34.8001 82.8999 34.7001C83.0299 34.6001 83.0999 34.4701 83.0999 34.3201Z" fill="#B7B7B7"/>
<path d="M86.0399 34.85C86.2399 34.85 86.4199 34.7801 86.5799 34.6501C86.7299 34.5101 86.8099 34.3501 86.8099 34.1501H87.4099V34.17C87.4299 34.48 87.2899 34.7601 87.0199 35.0101C86.7399 35.2501 86.4199 35.3801 86.0499 35.3801C85.5399 35.3801 85.1399 35.21 84.8699 34.86C84.5899 34.51 84.4499 34.0801 84.4499 33.5601V33.42C84.4499 32.91 84.5899 32.4701 84.8699 32.1301C85.1499 31.7801 85.5399 31.61 86.0499 31.61C86.4599 31.61 86.7899 31.7401 87.0499 31.9901C87.3099 32.2401 87.4299 32.55 87.4299 32.92V32.9401H86.8199C86.8199 32.7201 86.7499 32.5301 86.5999 32.3701C86.4599 32.2201 86.2699 32.1401 86.0499 32.1401C85.7199 32.1401 85.4899 32.2701 85.3399 32.5201C85.1899 32.7701 85.1199 33.0801 85.1199 33.4401V33.5801C85.1199 33.9501 85.1899 34.2501 85.3399 34.5101C85.4899 34.7601 85.7299 34.8901 86.0599 34.8901" fill="#B7B7B7"/>
<path d="M88.0499 33.4501C88.0499 32.9101 88.1899 32.4701 88.4899 32.1201C88.7799 31.7701 89.1799 31.6 89.6799 31.6C90.1799 31.6 90.5899 31.7701 90.8799 32.1201C91.1699 32.4701 91.3199 32.9101 91.3199 33.4501V33.5201C91.3199 34.0601 91.1799 34.51 90.8799 34.85C90.5899 35.2 90.1899 35.3701 89.6899 35.3701C89.1899 35.3701 88.7899 35.2 88.4999 34.85C88.2099 34.5 88.0599 34.0601 88.0599 33.5201V33.4501H88.0499ZM88.7099 33.5201C88.7099 33.9101 88.7899 34.23 88.9499 34.48C89.1099 34.73 89.3499 34.86 89.6799 34.86C90.0099 34.86 90.2399 34.73 90.3999 34.48C90.5699 34.23 90.6499 33.9101 90.6499 33.5201V33.4501C90.6499 33.0701 90.5699 32.7501 90.3999 32.5001C90.2299 32.2501 89.9899 32.1201 89.6699 32.1201C89.3499 32.1201 89.1199 32.2501 88.9499 32.5001C88.7899 32.7501 88.7099 33.0701 88.7099 33.4501V33.5201Z" fill="#B7B7B7"/>
<path d="M92.8399 30.05H92.1799V35.3101H92.8399V30.05Z" fill="#B7B7B7"/>
<path d="M96.0999 35.3C96.0799 35.19 96.0599 35.0901 96.0499 35.0101C96.0399 34.9301 96.0299 34.8401 96.0299 34.7601C95.9099 34.9401 95.7399 35.0801 95.5499 35.2001C95.3499 35.3201 95.1399 35.3801 94.9099 35.3801C94.5299 35.3801 94.2399 35.2801 94.0399 35.0901C93.8399 34.8901 93.7399 34.63 93.7399 34.29C93.7399 33.95 93.8799 33.67 94.1599 33.47C94.4399 33.27 94.8199 33.1801 95.3099 33.1801H96.0299V32.8201C96.0299 32.6101 95.9599 32.4401 95.8299 32.3101C95.6999 32.1901 95.5199 32.1201 95.2799 32.1201C95.0599 32.1201 94.8899 32.1701 94.7599 32.2801C94.6299 32.3901 94.5599 32.52 94.5599 32.67H93.9299V32.66C93.9199 32.39 94.0399 32.1501 94.2999 31.9301C94.5599 31.7101 94.9099 31.6 95.3199 31.6C95.7299 31.6 96.0699 31.7 96.3199 31.91C96.5699 32.12 96.6999 32.4201 96.6999 32.8201V34.5801C96.6999 34.7101 96.6999 34.8301 96.7199 34.9601C96.7299 35.0801 96.7599 35.2001 96.7899 35.3201H96.1099L96.0999 35.3ZM94.9999 34.8201C95.2399 34.8201 95.4599 34.7601 95.6499 34.6301C95.8399 34.5101 95.9699 34.3601 96.0299 34.2101V33.6201H95.2899C95.0199 33.6201 94.8099 33.6901 94.6499 33.8201C94.4899 33.9601 94.4099 34.11 94.4099 34.3C94.4099 34.46 94.4599 34.5901 94.5599 34.6901C94.6599 34.7801 94.8099 34.8301 95.0099 34.8301" fill="#B7B7B7"/>
<path d="M99.2199 33.55C99.2199 32.96 99.3399 32.4901 99.5999 32.1301C99.8499 31.7701 100.2 31.5901 100.65 31.5901C100.86 31.5901 101.05 31.6301 101.22 31.7101C101.39 31.7901 101.53 31.9 101.64 32.05V30.05H102.3V35.3101H101.79L101.69 34.85C101.57 35.03 101.42 35.1601 101.25 35.2501C101.07 35.3401 100.87 35.3901 100.64 35.3901C100.2 35.3901 99.8499 35.23 99.5999 34.91C99.3499 34.59 99.2199 34.1601 99.2199 33.6401V33.5701V33.55ZM99.8799 33.6201C99.8799 33.9901 99.9599 34.2801 100.11 34.5101C100.26 34.7301 100.49 34.8401 100.81 34.8401C101.01 34.8401 101.18 34.8001 101.31 34.7101C101.44 34.6201 101.55 34.4901 101.64 34.3301V32.6301C101.55 32.4801 101.44 32.3601 101.31 32.2701C101.17 32.1801 101.01 32.1401 100.82 32.1401C100.5 32.1401 100.27 32.2701 100.11 32.5301C99.9599 32.7901 99.8799 33.13 99.8799 33.55V33.6201Z" fill="#B7B7B7"/>
<path d="M104.8 35.3701C104.28 35.3701 103.87 35.2001 103.58 34.8701C103.29 34.5401 103.14 34.1 103.14 33.55V33.4001C103.14 32.8801 103.29 32.44 103.59 32.1C103.89 31.76 104.26 31.5901 104.7 31.5901C105.19 31.5901 105.55 31.74 105.8 32.04C106.04 32.34 106.17 32.7501 106.17 33.2501V33.6H103.84V33.6201C103.83 33.9901 103.91 34.2801 104.07 34.5101C104.23 34.7401 104.48 34.85 104.81 34.85C105.03 34.85 105.23 34.8201 105.4 34.7501C105.57 34.6901 105.72 34.6001 105.84 34.4901L106.1 34.92C105.97 35.05 105.8 35.1501 105.58 35.2401C105.37 35.3301 105.11 35.3701 104.81 35.3701M104.69 32.11C104.46 32.11 104.27 32.2001 104.11 32.3801C103.96 32.5601 103.87 32.7901 103.83 33.0701V33.0901H105.48V33.0301C105.48 32.7601 105.42 32.5501 105.29 32.3701C105.16 32.2001 104.96 32.11 104.69 32.11Z" fill="#B7B7B7"/>
<path d="M109.54 30.7801V31.66H110.23V32.1501H109.54V34.36C109.54 34.53 109.57 34.65 109.65 34.72C109.72 34.79 109.82 34.8201 109.93 34.8201C109.97 34.8201 110.01 34.8201 110.06 34.8101C110.11 34.8001 110.15 34.7901 110.18 34.7801L110.27 35.23C110.27 35.23 110.15 35.3001 110.05 35.3301C109.95 35.3601 109.86 35.3701 109.76 35.3701C109.49 35.3701 109.28 35.2901 109.12 35.1301C108.96 34.9701 108.88 34.71 108.88 34.36V32.1501H108.3V31.66H108.88V30.7801H109.54Z" fill="#B7B7B7"/>
<path d="M112.45 35.3701C111.93 35.3701 111.52 35.2001 111.23 34.8701C110.94 34.5401 110.79 34.1 110.79 33.55V33.4001C110.79 32.8801 110.94 32.44 111.24 32.1C111.54 31.76 111.91 31.5901 112.35 31.5901C112.84 31.5901 113.2 31.74 113.45 32.04C113.69 32.34 113.82 32.7501 113.82 33.2501V33.6H111.49V33.6201C111.48 33.9901 111.56 34.2801 111.72 34.5101C111.88 34.7401 112.13 34.85 112.46 34.85C112.68 34.85 112.88 34.8201 113.05 34.7501C113.22 34.6901 113.37 34.6001 113.49 34.4901L113.75 34.92C113.62 35.05 113.45 35.1501 113.23 35.2401C113.02 35.3301 112.76 35.3701 112.46 35.3701M112.34 32.11C112.11 32.11 111.92 32.2001 111.76 32.3801C111.61 32.5601 111.52 32.7901 111.48 33.0701V33.0901H113.13V33.0301C113.13 32.7601 113.07 32.5501 112.94 32.3701C112.81 32.2001 112.61 32.11 112.34 32.11Z" fill="#B7B7B7"/>
<path d="M116 34.85C116.2 34.85 116.38 34.7801 116.54 34.6501C116.69 34.5101 116.77 34.3501 116.77 34.1501H117.37V34.17C117.39 34.48 117.25 34.7601 116.98 35.0101C116.7 35.2501 116.38 35.3801 116.01 35.3801C115.5 35.3801 115.1 35.21 114.83 34.86C114.55 34.51 114.41 34.0801 114.41 33.5601V33.42C114.41 32.91 114.55 32.4701 114.83 32.1301C115.11 31.7801 115.5 31.61 116.01 31.61C116.42 31.61 116.75 31.7401 117.01 31.9901C117.27 32.2401 117.39 32.55 117.39 32.92V32.9401H116.78C116.78 32.7201 116.71 32.5301 116.56 32.3701C116.42 32.2201 116.23 32.1401 116.01 32.1401C115.68 32.1401 115.45 32.2701 115.3 32.5201C115.15 32.7701 115.08 33.0801 115.08 33.4401V33.5801C115.08 33.9501 115.15 34.2501 115.3 34.5101C115.45 34.7601 115.69 34.8901 116.02 34.8901" fill="#B7B7B7"/>
<path d="M118.75 31.66L118.8 32.2001C118.92 32.0101 119.07 31.8601 119.26 31.7501C119.44 31.6401 119.65 31.5901 119.88 31.5901C120.27 31.5901 120.58 31.7001 120.79 31.9301C121 32.1601 121.11 32.5201 121.11 33.0001V35.3H120.45V33.0101C120.45 32.6901 120.39 32.4601 120.26 32.3201C120.13 32.1901 119.94 32.1201 119.68 32.1201C119.48 32.1201 119.3 32.1601 119.16 32.2401C119.02 32.3201 118.9 32.4401 118.82 32.5801V35.2801H118.16V31.6401H118.75V31.66Z" fill="#B7B7B7"/>
<path d="M121.93 33.4501C121.93 32.9101 122.07 32.4701 122.37 32.1201C122.66 31.7701 123.06 31.6 123.56 31.6C124.06 31.6 124.47 31.7701 124.76 32.1201C125.05 32.4701 125.2 32.9101 125.2 33.4501V33.5201C125.2 34.0601 125.06 34.51 124.76 34.85C124.47 35.2 124.07 35.3701 123.57 35.3701C123.07 35.3701 122.67 35.2 122.38 34.85C122.09 34.5 121.94 34.0601 121.94 33.5201V33.4501H121.93ZM122.59 33.5201C122.59 33.9101 122.67 34.23 122.83 34.48C122.99 34.73 123.23 34.86 123.56 34.86C123.89 34.86 124.12 34.73 124.28 34.48C124.45 34.23 124.53 33.9101 124.53 33.5201V33.4501C124.53 33.0701 124.45 32.7501 124.28 32.5001C124.11 32.2501 123.87 32.1201 123.55 32.1201C123.23 32.1201 123 32.2501 122.83 32.5001C122.67 32.7501 122.59 33.0701 122.59 33.4501V33.5201Z" fill="#B7B7B7"/>
<path d="M126.72 30.05H126.06V35.3101H126.72V30.05Z" fill="#B7B7B7"/>
<path d="M127.59 33.4501C127.59 32.9101 127.73 32.4701 128.03 32.1201C128.32 31.7701 128.72 31.6 129.22 31.6C129.72 31.6 130.13 31.7701 130.42 32.1201C130.71 32.4701 130.86 32.9101 130.86 33.4501V33.5201C130.86 34.0601 130.72 34.51 130.42 34.85C130.13 35.2 129.73 35.3701 129.23 35.3701C128.73 35.3701 128.33 35.2 128.04 34.85C127.75 34.5 127.6 34.0601 127.6 33.5201V33.4501H127.59ZM128.25 33.5201C128.25 33.9101 128.33 34.23 128.49 34.48C128.65 34.73 128.89 34.86 129.22 34.86C129.55 34.86 129.78 34.73 129.94 34.48C130.11 34.23 130.19 33.9101 130.19 33.5201V33.4501C130.19 33.0701 130.11 32.7501 129.94 32.5001C129.77 32.2501 129.53 32.1201 129.21 32.1201C128.89 32.1201 128.66 32.2501 128.49 32.5001C128.33 32.7501 128.25 33.0701 128.25 33.4501V33.5201Z" fill="#B7B7B7"/>
<path d="M131.54 33.55C131.54 32.96 131.66 32.4901 131.92 32.1301C132.17 31.7701 132.52 31.5901 132.97 31.5901C133.2 31.5901 133.4 31.64 133.58 31.73C133.76 31.82 133.9 31.9601 134.02 32.1301L134.1 31.6501H134.63V35.3101C134.63 35.7801 134.49 36.1401 134.22 36.3901C133.95 36.6401 133.56 36.7701 133.04 36.7701C132.86 36.7701 132.68 36.7501 132.47 36.7001C132.27 36.6501 132.09 36.5901 131.93 36.5001L132.03 35.98C132.16 36.05 132.31 36.1001 132.49 36.1401C132.67 36.1801 132.85 36.2001 133.02 36.2001C133.34 36.2001 133.58 36.12 133.73 35.98C133.88 35.83 133.95 35.6101 133.95 35.3101V34.9001C133.83 35.0501 133.69 35.1701 133.52 35.2501C133.35 35.3301 133.16 35.3701 132.94 35.3701C132.5 35.3701 132.15 35.2101 131.9 34.8901C131.65 34.5701 131.52 34.1401 131.52 33.6201V33.55H131.54ZM132.21 33.6201C132.21 33.9901 132.29 34.2801 132.44 34.5001C132.59 34.7201 132.82 34.8301 133.14 34.8301C133.34 34.8301 133.51 34.7901 133.64 34.6901C133.77 34.6001 133.88 34.47 133.97 34.3V32.6201C133.88 32.4701 133.77 32.3401 133.64 32.2501C133.5 32.1601 133.34 32.11 133.14 32.11C132.82 32.11 132.59 32.2401 132.44 32.5001C132.29 32.7601 132.21 33.1001 132.21 33.5201V33.5901V33.6201Z" fill="#B7B7B7"/>
<path d="M136.3 30.72H135.64V30.04H136.3V30.72ZM136.3 35.3H135.64V31.66H136.3V35.3Z" fill="#B7B7B7"/>
<path d="M139.56 35.3C139.54 35.19 139.52 35.0901 139.51 35.0101C139.5 34.9301 139.49 34.8401 139.49 34.7601C139.37 34.9401 139.2 35.0801 139.01 35.2001C138.81 35.3201 138.6 35.3801 138.37 35.3801C137.99 35.3801 137.7 35.2801 137.5 35.0901C137.3 34.8901 137.2 34.63 137.2 34.29C137.2 33.95 137.34 33.67 137.62 33.47C137.9 33.27 138.28 33.1801 138.77 33.1801H139.49V32.8201C139.49 32.6101 139.42 32.4401 139.29 32.3101C139.16 32.1901 138.98 32.1201 138.74 32.1201C138.52 32.1201 138.35 32.1701 138.22 32.2801C138.09 32.3901 138.02 32.52 138.02 32.67H137.39V32.66C137.38 32.39 137.5 32.1501 137.76 31.9301C138.02 31.7101 138.37 31.6 138.78 31.6C139.19 31.6 139.53 31.7 139.78 31.91C140.03 32.12 140.16 32.4201 140.16 32.8201V34.5801C140.16 34.7101 140.16 34.8301 140.18 34.9601C140.19 35.0801 140.22 35.2001 140.25 35.3201H139.57L139.56 35.3ZM138.46 34.8201C138.7 34.8201 138.92 34.7601 139.11 34.6301C139.3 34.5101 139.43 34.3601 139.49 34.2101V33.6201H138.75C138.48 33.6201 138.27 33.6901 138.11 33.8201C137.95 33.9601 137.87 34.11 137.87 34.3C137.87 34.46 137.92 34.5901 138.02 34.6901C138.12 34.7801 138.27 34.8301 138.47 34.8301" fill="#B7B7B7"/>
<defs>
<linearGradient id="paint0_linear_1_175" x1="0.629883" y1="18.0701" x2="139.27" y2="18.0701" gradientUnits="userSpaceOnUse">
<stop stop-color="#442A65"/>
<stop offset="0.37" stop-color="#472967"/>
<stop offset="0.69" stop-color="#512770"/>
<stop offset="0.99" stop-color="#63247E"/>
<stop offset="1" stop-color="#64247F"/>
</linearGradient>
</defs>
</svg>
