<svg width="151" height="39" viewBox="0 0 151 39" fill="none" xmlns="http://www.w3.org/2000/svg">
<path fill-rule="evenodd" clip-rule="evenodd" d="M22.7401 23.5499C22.7701 22.9099 23.3101 22.4099 23.9601 22.4399C24.4801 22.4699 24.9101 22.8299 25.0401 23.3099C25.5901 25.1699 26.7701 26.1699 28.4901 26.9099C28.9201 27.0899 29.2201 27.5299 29.2001 28.0299C29.1701 28.6699 28.6301 29.1699 27.9801 29.1399C26.0201 29.0499 22.6701 25.4199 22.7501 23.5499M79.9901 23.5499C80.0201 22.9099 80.5601 22.4099 81.2101 22.4399C81.7301 22.4699 82.1601 22.8299 82.2901 23.3099C82.8401 25.1699 84.0201 26.1699 85.7401 26.9099C86.1701 27.0899 86.4701 27.5299 86.4501 28.0299C86.4201 28.6699 85.8801 29.1699 85.2301 29.1399C83.2701 29.0499 79.9201 25.4199 80.0001 23.5499" fill="#8CBC24"/>
<path fill-rule="evenodd" clip-rule="evenodd" d="M13.2601 27.5099C13.2601 28.3999 13.9901 29.1399 14.8901 29.1399H18.3601C19.2501 29.1399 19.9801 28.4099 19.9801 27.5099C19.9801 26.6099 19.2501 25.8799 18.3601 25.8799H14.8901C14.0001 25.8799 13.2601 26.6099 13.2601 27.5099Z" fill="#AF191E"/>
<path fill-rule="evenodd" clip-rule="evenodd" d="M104.95 29.1399C105.84 29.1399 106.58 28.4099 106.58 27.5099V24.0399C106.58 23.1499 105.85 22.4099 104.95 22.4099C104.05 22.4099 103.33 23.1399 103.33 24.0399V27.5099C103.33 28.3999 104.06 29.1399 104.95 29.1399Z" fill="#AF191E"/>
<path fill-rule="evenodd" clip-rule="evenodd" d="M124.56 12.5099H126.43C127.45 12.5099 128.29 11.6699 128.29 10.6399C128.29 9.60989 127.45 8.77991 126.43 8.77991C125.41 8.77991 124.57 9.61989 124.57 10.6399V12.5099H124.56Z" fill="#298CCC"/>
<path fill-rule="evenodd" clip-rule="evenodd" d="M57.3901 12.5099H59.2501C60.2801 12.5099 61.1201 11.6699 61.1201 10.6399C61.1201 9.60989 60.2801 8.77991 59.2501 8.77991C58.2201 8.77991 57.3901 9.61989 57.3901 10.6399V12.5099Z" fill="#298CCC"/>
<path fill-rule="evenodd" clip-rule="evenodd" d="M29.3901 12.5099H31.2501C32.2701 12.5099 33.1101 11.6699 33.1101 10.6499C33.1101 9.6299 32.2701 8.77991 31.2501 8.77991C30.2301 8.77991 29.3901 9.6199 29.3901 10.6499V12.5099ZM87.4101 13.6999C91.6701 13.6999 95.1301 17.1499 95.1301 21.4199C95.1301 25.6899 91.6801 29.1299 87.4101 29.1299H87.3401V26.7999H87.4101C90.3801 26.7999 92.7901 24.3899 92.7901 21.4199C92.7901 18.4499 90.3801 16.0399 87.4101 16.0399C84.4401 16.0399 82.1001 18.3799 82.0301 21.2899H79.7001C79.7701 17.0899 83.2001 13.7099 87.4101 13.7099M75.2801 29.1199H69.9201C65.6701 29.1199 62.2001 25.6699 62.2001 21.4399C62.2001 17.2099 65.6701 13.7599 69.9201 13.7599C74.1701 13.7599 77.6401 17.2099 77.6401 21.4399V30.6899C77.6401 38.8599 65.0501 40.1499 62.2101 33.0099H65.2401C67.9901 37.2699 75.2801 34.9699 75.2801 30.6799V29.1099V29.1199ZM75.2801 26.7699V21.4299C75.2801 18.4999 72.8701 16.0899 69.9201 16.0899C66.9701 16.0899 64.5601 18.4899 64.5601 21.4299C64.5601 24.3699 66.9701 26.7699 69.9201 26.7699H75.2801ZM57.3901 13.9099H59.7201V29.1099H57.3901V13.9099ZM52.5501 13.9099V5.44989H54.8701V21.5299C54.8701 25.7199 51.4501 29.1499 47.2501 29.1499C43.0501 29.1499 39.6301 25.7299 39.6301 21.5299C39.6301 17.3299 43.0501 13.9099 47.2501 13.9099H52.5501ZM52.5501 16.2299H47.2501C44.3301 16.2299 41.9501 18.6199 41.9501 21.5299C41.9501 24.4399 44.3401 26.8399 47.2501 26.8399C50.1601 26.8399 52.5501 24.4499 52.5501 21.5299V16.2299ZM30.1701 13.6999C34.4301 13.6999 37.8901 17.1499 37.8901 21.4199C37.8901 25.6899 34.4401 29.1299 30.1701 29.1299H30.1001V26.7999H30.1701C33.1401 26.7999 35.5501 24.3899 35.5501 21.4199C35.5501 18.4499 33.1401 16.0399 30.1701 16.0399C27.2001 16.0399 24.8601 18.3799 24.7901 21.2899H22.4601C22.5301 17.0899 25.9601 13.7099 30.1701 13.7099M12.0401 5.34985C15.5301 5.34985 18.6701 6.83985 20.8601 9.21985L18.2201 11.6399C16.6901 9.97989 14.4901 8.92987 12.0501 8.92987C7.43008 8.92987 3.69009 12.6499 3.69009 17.2499C3.69009 21.8499 7.43008 25.5699 12.0501 25.5699H12.1401V29.1399H12.0501C5.45008 29.1399 0.100098 23.8199 0.100098 17.2499C0.100098 10.6799 5.45008 5.35986 12.0501 5.35986M107 17.1899L121.36 26.0299L119.5 29.1099L103.14 19.0399V0.399902H106.69V13.2299L106.71 13.1899L119.98 5.44989L121.77 8.56989L107 17.1799V17.1899ZM124.56 13.9099H126.89V29.1099H124.56V13.9099ZM143.22 13.9099V5.44989H145.53V21.5299C145.53 25.7199 142.11 29.1499 137.91 29.1499C133.71 29.1499 130.29 25.7299 130.29 21.5299C130.29 17.3299 133.71 13.9099 137.91 13.9099H143.21H143.22ZM143.22 16.2299H137.92C135 16.2299 132.61 18.6199 132.61 21.5299C132.61 24.4399 135 26.8399 137.92 26.8399C140.84 26.8399 143.22 24.4499 143.22 21.5299V16.2299Z" fill="url(#paint0_linear_1_97)"/>
<path d="M147.5 2.42987H147.94C148.07 2.42987 148.18 2.3999 148.26 2.3299C148.35 2.2699 148.39 2.1799 148.39 2.0799C148.39 1.9399 148.35 1.83991 148.28 1.77991C148.2 1.71991 148.07 1.68988 147.88 1.68988H147.5V2.42987ZM147.5 2.80988V3.79987H147.06V1.30988H147.88C148.18 1.30988 148.41 1.36988 148.58 1.49988C148.75 1.62988 148.83 1.80988 148.83 2.05988C148.83 2.17988 148.8 2.28988 148.73 2.37988C148.67 2.46988 148.57 2.54986 148.45 2.60986C148.58 2.65986 148.67 2.7399 148.73 2.8399C148.79 2.9399 148.82 3.0699 148.82 3.2099V3.36987C148.82 3.44987 148.82 3.5199 148.83 3.5799C148.83 3.63989 148.85 3.69987 148.87 3.73987V3.78986H148.42C148.42 3.78986 148.39 3.68986 148.39 3.60986C148.39 3.52986 148.39 3.44987 148.39 3.36987V3.2099C148.39 3.0699 148.36 2.9699 148.29 2.8999C148.22 2.8299 148.12 2.79987 147.97 2.79987H147.5V2.80988ZM146.2 2.5899C146.2 3.1099 146.37 3.5499 146.7 3.8999C147.04 4.2599 147.44 4.42987 147.92 4.42987C148.4 4.42987 148.8 4.2499 149.14 3.8999C149.48 3.5499 149.64 3.1099 149.64 2.5899C149.64 2.0699 149.47 1.63986 149.14 1.28986C148.8 0.939856 148.4 0.759888 147.92 0.759888C147.44 0.759888 147.03 0.939856 146.7 1.28986C146.37 1.63986 146.2 2.0799 146.2 2.5899ZM145.85 2.5899C145.85 1.9799 146.05 1.45986 146.46 1.03986C146.86 0.619856 147.36 0.409851 147.93 0.409851C148.5 0.409851 149 0.619856 149.4 1.03986C149.8 1.45986 150.01 1.9799 150.01 2.5899C150.01 3.1999 149.81 3.7299 149.4 4.1499C149 4.5699 148.51 4.77986 147.93 4.78986C147.35 4.78986 146.86 4.5799 146.46 4.1499C146.06 3.7299 145.85 3.1999 145.85 2.5899Z" fill="white"/>
<path d="M83.3001 34.7299H81.1801V36.5699H83.6601V37.1099H80.4901V31.9698H83.6201V32.5199H81.1801V34.1799H83.3001V34.7299Z" fill="#B7B7B7"/>
<path d="M86.6101 36.0899C86.6101 35.9399 86.5501 35.8098 86.4301 35.7198C86.3101 35.6198 86.0901 35.5398 85.7701 35.4698C85.3201 35.3698 84.9701 35.2399 84.7301 35.0599C84.4901 34.8899 84.3701 34.6499 84.3701 34.3599C84.3701 34.0499 84.5001 33.7799 84.7701 33.5599C85.0401 33.3399 85.3801 33.2299 85.8001 33.2299C86.2201 33.2299 86.5801 33.3499 86.8501 33.5899C87.1201 33.8299 87.2501 34.0999 87.2401 34.4099V34.4299H86.5701C86.5701 34.2699 86.5001 34.1199 86.3501 33.9799C86.2001 33.8499 86.0201 33.7799 85.8001 33.7799C85.5501 33.7799 85.3701 33.8399 85.2501 33.9499C85.1301 34.0599 85.0701 34.1899 85.0701 34.3499C85.0701 34.5099 85.1201 34.6199 85.2301 34.6999C85.3301 34.7799 85.5501 34.8599 85.8801 34.9199C86.3501 35.0199 86.7101 35.1599 86.9501 35.3399C87.1901 35.5199 87.3101 35.7599 87.3101 36.0499C87.3101 36.3899 87.1701 36.6699 86.9001 36.8799C86.6301 37.0899 86.2701 37.1999 85.8201 37.1999C85.3301 37.1999 84.9501 37.0799 84.6701 36.8299C84.3901 36.5799 84.2501 36.2899 84.2701 35.9599V35.9399H84.9401C84.9501 36.1899 85.0401 36.3699 85.2201 36.4799C85.3901 36.5899 85.5901 36.6499 85.8201 36.6499C86.0701 36.6499 86.2601 36.5999 86.4001 36.4899C86.5401 36.3899 86.6101 36.2499 86.6101 36.0899Z" fill="#B7B7B7"/>
<path d="M89.6901 36.6399C89.9001 36.6399 90.0901 36.5699 90.2501 36.4299C90.4101 36.2899 90.4901 36.1099 90.4901 35.9099H91.1201V35.9299C91.1401 36.2599 91.0001 36.5499 90.7101 36.8099C90.4201 37.0699 90.0801 37.1899 89.6901 37.1899C89.1501 37.1899 88.7401 37.0099 88.4501 36.6399C88.1601 36.2799 88.0101 35.8199 88.0101 35.2799V35.1299C88.0101 34.5899 88.1601 34.1399 88.4501 33.7699C88.7501 33.3999 89.1601 33.2198 89.6901 33.2198C90.1201 33.2198 90.4701 33.3499 90.7401 33.6199C91.0101 33.8899 91.1401 34.2099 91.1301 34.5899V34.6099H90.4901C90.4901 34.3799 90.4101 34.1799 90.2601 34.0099C90.1101 33.8499 89.9201 33.7599 89.6901 33.7599C89.3501 33.7599 89.1001 33.8899 88.9401 34.1599C88.7801 34.4299 88.7001 34.7499 88.7001 35.1199V35.2699C88.7001 35.6499 88.7801 35.9799 88.9301 36.2399C89.0801 36.4999 89.3301 36.6399 89.6801 36.6399" fill="#B7B7B7"/>
<path d="M91.8001 35.1699C91.8001 34.5999 91.9501 34.1399 92.2601 33.7699C92.5701 33.3999 92.9801 33.2198 93.5101 33.2198C94.0401 33.2198 94.4601 33.3999 94.7701 33.7699C95.0801 34.1299 95.2301 34.5999 95.2301 35.1699V35.2499C95.2301 35.8199 95.0801 36.2899 94.7701 36.6499C94.4601 37.0099 94.0501 37.1899 93.5201 37.1899C92.9901 37.1899 92.5701 37.0099 92.2701 36.6399C91.9701 36.2699 91.8101 35.8099 91.8101 35.2399V35.1599L91.8001 35.1699ZM92.4901 35.2399C92.4901 35.6399 92.5801 35.9799 92.7501 36.2399C92.9201 36.4999 93.1701 36.6399 93.5101 36.6399C93.8501 36.6399 94.0901 36.5099 94.2701 36.2399C94.4401 35.9799 94.5301 35.6399 94.5301 35.2399V35.1599C94.5301 34.7599 94.4401 34.4299 94.2701 34.1599C94.1001 33.8899 93.8401 33.7599 93.5101 33.7599C93.1801 33.7599 92.9301 33.8899 92.7601 34.1599C92.5901 34.4299 92.5001 34.7599 92.5001 35.1599V35.2399H92.4901Z" fill="#B7B7B7"/>
<path d="M96.8301 31.5999H96.1301V37.1099H96.8301V31.5999Z" fill="#B7B7B7"/>
<path d="M100.24 37.1099C100.22 36.9899 100.2 36.8899 100.19 36.7999C100.18 36.7099 100.17 36.6199 100.17 36.5299C100.04 36.7099 99.8701 36.8699 99.6601 36.9899C99.4501 37.1099 99.2301 37.1799 98.9901 37.1799C98.5901 37.1799 98.2901 37.0799 98.0801 36.8699C97.8701 36.6599 97.7701 36.3799 97.7701 36.0299C97.7701 35.6799 97.9201 35.3799 98.2101 35.1699C98.5101 34.9599 98.9101 34.8599 99.4101 34.8599H100.17V34.4799C100.17 34.2599 100.1 34.0799 99.9601 33.9499C99.8201 33.8199 99.6301 33.7599 99.3801 33.7599C99.1501 33.7599 98.9701 33.8199 98.8301 33.9299C98.6901 34.0399 98.6201 34.1799 98.6201 34.3399H97.9601V34.3299C97.9501 34.0499 98.0801 33.7999 98.3501 33.5699C98.6301 33.3399 98.9901 33.2299 99.4201 33.2299C99.8501 33.2299 100.2 33.3399 100.47 33.5599C100.74 33.7799 100.87 34.0999 100.87 34.5099V36.3499C100.87 36.4899 100.87 36.6199 100.89 36.7499C100.9 36.8799 100.93 36.9999 100.97 37.1199H100.25L100.24 37.1099ZM99.0901 36.5999C99.3401 36.5999 99.5701 36.5399 99.7701 36.4099C99.9701 36.2799 100.1 36.1298 100.17 35.9698V35.3499H99.3901C99.1101 35.3499 98.8901 35.4199 98.7201 35.5599C98.5501 35.6999 98.4701 35.8699 98.4701 36.0599C98.4701 36.2299 98.5201 36.3599 98.6301 36.4599C98.7401 36.5599 98.8901 36.6099 99.1001 36.6099" fill="#B7B7B7"/>
<path d="M103.51 35.2699C103.51 34.6599 103.64 34.1599 103.9 33.7799C104.16 33.3999 104.53 33.2198 105 33.2198C105.22 33.2198 105.42 33.2599 105.59 33.3399C105.76 33.4199 105.91 33.5399 106.03 33.6999V31.5999H106.73V37.1099H106.2L106.09 36.6299C105.97 36.8099 105.81 36.9499 105.63 37.0499C105.45 37.1499 105.23 37.1899 104.99 37.1899C104.52 37.1899 104.16 37.0199 103.89 36.6799C103.62 36.3399 103.49 35.8999 103.49 35.3499V35.2799L103.51 35.2699ZM104.21 35.3499C104.21 35.7399 104.29 36.0499 104.45 36.2799C104.61 36.5099 104.85 36.6299 105.18 36.6299C105.39 36.6299 105.56 36.5799 105.7 36.4899C105.84 36.3999 105.96 36.2599 106.05 36.0899V34.3099C105.96 34.1499 105.84 34.0299 105.7 33.9299C105.56 33.8399 105.39 33.7899 105.19 33.7899C104.85 33.7899 104.61 33.9299 104.45 34.1999C104.29 34.4799 104.21 34.8299 104.21 35.2699V35.3399V35.3499Z" fill="#B7B7B7"/>
<path d="M109.37 37.1899C108.82 37.1899 108.39 37.0099 108.09 36.6599C107.78 36.3099 107.63 35.8499 107.63 35.2699V35.1199C107.63 34.5699 107.79 34.1199 108.1 33.7599C108.42 33.3999 108.8 33.2198 109.26 33.2198C109.77 33.2198 110.15 33.3799 110.41 33.6999C110.66 34.0199 110.79 34.4398 110.79 34.9698V35.3399H108.34V35.3599C108.33 35.7399 108.41 36.0599 108.58 36.2899C108.75 36.5299 109.01 36.6499 109.36 36.6499C109.6 36.6499 109.8 36.6199 109.98 36.5499C110.16 36.4799 110.31 36.3899 110.44 36.2699L110.71 36.7198C110.57 36.8498 110.39 36.9599 110.17 37.0499C109.95 37.1399 109.68 37.1899 109.36 37.1899M109.26 33.7699C109.02 33.7699 108.82 33.8599 108.66 34.0499C108.5 34.2399 108.41 34.4799 108.37 34.7699V34.7899H110.1V34.7299C110.1 34.4499 110.03 34.2199 109.9 34.0399C109.76 33.8599 109.55 33.7699 109.27 33.7699" fill="#B7B7B7"/>
<path d="M114.34 32.3699V33.2899H115.07V33.8099H114.34V36.1299C114.34 36.3099 114.38 36.4399 114.45 36.5099C114.52 36.5799 114.62 36.6199 114.75 36.6199C114.79 36.6199 114.84 36.6199 114.88 36.6099C114.93 36.5999 114.97 36.5899 115 36.5799L115.09 37.0599C115.04 37.0999 114.96 37.1399 114.86 37.1599C114.76 37.1899 114.66 37.1999 114.56 37.1999C114.28 37.1999 114.05 37.1099 113.89 36.9399C113.73 36.7699 113.64 36.4999 113.64 36.1399V33.8199H113.03V33.2999H113.64V32.3799H114.34V32.3699Z" fill="#B7B7B7"/>
<path d="M117.39 37.1899C116.84 37.1899 116.41 37.0099 116.11 36.6599C115.8 36.3099 115.65 35.8499 115.65 35.2699V35.1199C115.65 34.5699 115.81 34.1199 116.12 33.7599C116.44 33.3999 116.82 33.2198 117.28 33.2198C117.79 33.2198 118.17 33.3799 118.43 33.6999C118.68 34.0199 118.81 34.4398 118.81 34.9698V35.3399H116.36V35.3599C116.35 35.7399 116.43 36.0599 116.6 36.2899C116.77 36.5299 117.03 36.6499 117.38 36.6499C117.62 36.6499 117.82 36.6199 118 36.5499C118.18 36.4799 118.33 36.3899 118.46 36.2699L118.73 36.7198C118.59 36.8498 118.41 36.9599 118.19 37.0499C117.97 37.1399 117.7 37.1899 117.38 37.1899M117.28 33.7699C117.04 33.7699 116.84 33.8599 116.68 34.0499C116.52 34.2399 116.43 34.4799 116.39 34.7699V34.7899H118.12V34.7299C118.12 34.4499 118.05 34.2199 117.92 34.0399C117.78 33.8599 117.57 33.7699 117.29 33.7699" fill="#B7B7B7"/>
<path d="M121.11 36.6399C121.32 36.6399 121.51 36.5699 121.67 36.4299C121.83 36.2899 121.91 36.1099 121.91 35.9099H122.54V35.9299C122.56 36.2599 122.42 36.5499 122.13 36.8099C121.84 37.0699 121.5 37.1899 121.11 37.1899C120.57 37.1899 120.16 37.0099 119.87 36.6399C119.58 36.2799 119.43 35.8199 119.43 35.2799V35.1299C119.43 34.5899 119.58 34.1399 119.87 33.7699C120.17 33.3999 120.58 33.2198 121.11 33.2198C121.54 33.2198 121.89 33.3499 122.16 33.6199C122.43 33.8899 122.56 34.2099 122.55 34.5899V34.6099H121.91C121.91 34.3799 121.83 34.1799 121.68 34.0099C121.53 33.8499 121.34 33.7599 121.11 33.7599C120.77 33.7599 120.52 33.8899 120.36 34.1599C120.2 34.4299 120.12 34.7499 120.12 35.1199V35.2699C120.12 35.6499 120.2 35.9799 120.35 36.2399C120.5 36.4999 120.75 36.6399 121.1 36.6399" fill="#B7B7B7"/>
<path d="M124.01 33.2899L124.06 33.8599C124.19 33.6599 124.35 33.4999 124.54 33.3899C124.73 33.2799 124.95 33.2198 125.19 33.2198C125.6 33.2198 125.92 33.3399 126.15 33.5799C126.38 33.8199 126.49 34.1899 126.49 34.6999V37.1099H125.79V34.7099C125.79 34.3699 125.72 34.1299 125.59 33.9899C125.46 33.8499 125.25 33.7799 124.98 33.7799C124.77 33.7799 124.58 33.8199 124.43 33.9099C124.28 33.9999 124.16 34.1199 124.07 34.2699V37.1099H123.37V33.2899H123.99H124.01Z" fill="#B7B7B7"/>
<path d="M127.33 35.1699C127.33 34.5999 127.48 34.1399 127.79 33.7699C128.1 33.3999 128.51 33.2198 129.04 33.2198C129.57 33.2198 129.99 33.3999 130.3 33.7699C130.61 34.1299 130.76 34.5999 130.76 35.1699V35.2499C130.76 35.8199 130.61 36.2899 130.3 36.6499C129.99 37.0099 129.58 37.1899 129.05 37.1899C128.52 37.1899 128.1 37.0099 127.8 36.6399C127.5 36.2699 127.34 35.8099 127.34 35.2399V35.1599L127.33 35.1699ZM128.03 35.2399C128.03 35.6399 128.12 35.9799 128.29 36.2399C128.46 36.4999 128.71 36.6399 129.05 36.6399C129.39 36.6399 129.63 36.5099 129.81 36.2399C129.98 35.9799 130.07 35.6399 130.07 35.2399V35.1599C130.07 34.7599 129.98 34.4299 129.81 34.1599C129.64 33.8899 129.38 33.7599 129.05 33.7599C128.72 33.7599 128.47 33.8899 128.3 34.1599C128.13 34.4299 128.04 34.7599 128.04 35.1599V35.2399H128.03Z" fill="#B7B7B7"/>
<path d="M132.37 31.5999H131.67V37.1099H132.37V31.5999Z" fill="#B7B7B7"/>
<path d="M133.27 35.1699C133.27 34.5999 133.42 34.1399 133.73 33.7699C134.04 33.3999 134.45 33.2198 134.98 33.2198C135.51 33.2198 135.93 33.3999 136.24 33.7699C136.55 34.1299 136.7 34.5999 136.7 35.1699V35.2499C136.7 35.8199 136.55 36.2899 136.24 36.6499C135.93 37.0099 135.52 37.1899 134.99 37.1899C134.46 37.1899 134.04 37.0099 133.74 36.6399C133.44 36.2699 133.28 35.8099 133.28 35.2399V35.1599L133.27 35.1699ZM133.97 35.2399C133.97 35.6399 134.06 35.9799 134.23 36.2399C134.4 36.4999 134.65 36.6399 134.99 36.6399C135.33 36.6399 135.57 36.5099 135.75 36.2399C135.92 35.9799 136.01 35.6399 136.01 35.2399V35.1599C136.01 34.7599 135.92 34.4299 135.75 34.1599C135.58 33.8899 135.32 33.7599 134.99 33.7599C134.66 33.7599 134.41 33.8899 134.24 34.1599C134.07 34.4299 133.98 34.7599 133.98 35.1599V35.2399H133.97Z" fill="#B7B7B7"/>
<path d="M137.42 35.2699C137.42 34.6599 137.55 34.1599 137.81 33.7799C138.07 33.3999 138.44 33.2198 138.91 33.2198C139.15 33.2198 139.37 33.2699 139.55 33.3699C139.73 33.4699 139.89 33.6099 140.01 33.7899L140.09 33.2899H140.65V37.1299C140.65 37.6199 140.51 37.9999 140.22 38.2599C139.94 38.5199 139.52 38.6499 138.99 38.6499C138.81 38.6499 138.61 38.6199 138.4 38.5699C138.19 38.5199 138 38.4499 137.84 38.3599L137.94 37.8199C138.07 37.8899 138.24 37.9499 138.43 37.9899C138.62 38.0299 138.81 38.0599 138.99 38.0599C139.33 38.0599 139.58 37.9799 139.73 37.8299C139.88 37.6799 139.96 37.4399 139.96 37.1299V36.6999C139.84 36.8599 139.69 36.9799 139.51 37.0599C139.34 37.1399 139.14 37.1799 138.91 37.1799C138.44 37.1799 138.08 37.0099 137.82 36.6699C137.56 36.3299 137.43 35.8899 137.43 35.3399V35.2699H137.42ZM138.12 35.3499C138.12 35.7399 138.2 36.0399 138.36 36.2799C138.52 36.5099 138.76 36.6299 139.09 36.6299C139.3 36.6299 139.48 36.5799 139.62 36.4899C139.76 36.3999 139.88 36.2599 139.97 36.0899V34.3299C139.88 34.1699 139.76 34.0399 139.62 33.9399C139.48 33.8399 139.3 33.7999 139.1 33.7999C138.77 33.7999 138.52 33.9399 138.36 34.2099C138.2 34.4899 138.12 34.8399 138.12 35.2799V35.3499Z" fill="#B7B7B7"/>
<path d="M142.41 32.3099H141.71V31.5999H142.41V32.3099ZM142.41 37.1099H141.71V33.2899H142.41V37.1099Z" fill="#B7B7B7"/>
<path d="M145.83 37.1099C145.81 36.9899 145.79 36.8899 145.78 36.7999C145.77 36.7099 145.76 36.6199 145.76 36.5299C145.63 36.7099 145.46 36.8699 145.25 36.9899C145.04 37.1099 144.82 37.1799 144.58 37.1799C144.18 37.1799 143.88 37.0799 143.67 36.8699C143.46 36.6599 143.36 36.3799 143.36 36.0299C143.36 35.6799 143.51 35.3799 143.8 35.1699C144.1 34.9599 144.5 34.8599 145 34.8599H145.76V34.4799C145.76 34.2599 145.69 34.0799 145.55 33.9499C145.41 33.8199 145.22 33.7599 144.97 33.7599C144.74 33.7599 144.56 33.8199 144.42 33.9299C144.28 34.0399 144.21 34.1799 144.21 34.3399H143.55V34.3299C143.54 34.0499 143.67 33.7999 143.94 33.5699C144.22 33.3399 144.58 33.2299 145.01 33.2299C145.44 33.2299 145.79 33.3399 146.06 33.5599C146.33 33.7799 146.46 34.0999 146.46 34.5099V36.3499C146.46 36.4899 146.46 36.6199 146.48 36.7499C146.49 36.8799 146.52 36.9999 146.56 37.1199H145.84L145.83 37.1099ZM144.68 36.5999C144.93 36.5999 145.16 36.5399 145.36 36.4099C145.56 36.2799 145.69 36.1298 145.76 35.9698V35.3499H144.98C144.7 35.3499 144.48 35.4199 144.31 35.5599C144.14 35.6999 144.06 35.8699 144.06 36.0599C144.06 36.2299 144.11 36.3599 144.22 36.4599C144.33 36.5599 144.48 36.6099 144.69 36.6099" fill="#B7B7B7"/>
<defs>
<linearGradient id="paint0_linear_1_97" x1="0.0900977" y1="19.0399" x2="145.53" y2="19.0399" gradientUnits="userSpaceOnUse">
<stop stop-color="#F0C700"/>
<stop offset="1" stop-color="#F0A900"/>
</linearGradient>
</defs>
</svg>
